<svg version="1.1" xmlns="http://www.w3.org/2000/svg" viewBox="0 0 1026 553" width="1026" height="553">
  <!-- svg-source:excalidraw -->
  
  <defs>
    <style>
      @font-face {
        font-family: "Virgil";
        src: url("https://excalidraw.com/Virgil.woff2");
      }
      @font-face {
        font-family: "Cascadia";
        src: url("https://excalidraw.com/Cascadia.woff2");
      }
    </style>
  </defs>
  <rect x="0" y="0" width="1026" height="553" fill="#ffffff"></rect><g stroke-linecap="round" transform="translate(221 10) rotate(0 397.5 119.5)"><path d="M-0.17 -0.3 C283.61 0.71, 565.95 0.82, 794.31 0.73 M794.38 0.45 C794.4 49.89, 793.38 99.49, 793.93 239.05 M795.08 238.62 C621.93 236.55, 449.13 236.74, 0.17 239.49 M-1.44 240.58 C-1.45 176.67, -1.07 117.56, 0.42 -0.94" stroke="#000000" stroke-width="2.5" fill="none" stroke-dasharray="8 10"></path></g><g transform="translate(236 24) rotate(0 42 12.5)"><text x="0" y="18" font-family="Virgil, Segoe UI Emoji" font-size="20px" fill="#000000" text-anchor="start" style="white-space: pre;" direction="ltr">WorkFlow</text></g><g transform="translate(571.5 289.5) rotate(0 43.5 20)"><text x="0" y="14" font-family="Virgil, Segoe UI Emoji" font-size="16px" fill="#000000" text-anchor="start" style="white-space: pre;" direction="ltr">4 send msg</text><text x="0" y="34" font-family="Virgil, Segoe UI Emoji" font-size="16px" fill="#000000" text-anchor="start" style="white-space: pre;" direction="ltr"></text></g><g transform="translate(300.5 156.5) rotate(0 44.5 10)"><text x="0" y="14" font-family="Virgil, Segoe UI Emoji" font-size="16px" fill="#000000" text-anchor="start" style="white-space: pre;" direction="ltr">PrepareXXX</text></g><g transform="translate(235 498.5) rotate(0 48.5 12.5)"><text x="0" y="18" font-family="Virgil, Segoe UI Emoji" font-size="20px" fill="#000000" text-anchor="start" style="white-space: pre;" direction="ltr">Lts-agent</text></g><g stroke-linecap="round" transform="translate(773 130) rotate(0 93.5 33)"><path d="M125.57 1.16 C138.74 2.23, 152.42 7.18, 161.94 10.84 C171.46 14.5, 178.96 18.55, 182.69 23.13 C186.42 27.7, 186.77 33.12, 184.33 38.28 C181.88 43.45, 176.48 49.94, 168.04 54.11 C159.61 58.27, 146.73 61.36, 133.71 63.27 C120.69 65.19, 104.16 65.96, 89.93 65.58 C75.71 65.2, 60.59 63.36, 48.36 60.99 C36.12 58.63, 24.62 55.4, 16.54 51.4 C8.47 47.4, 1.82 41.99, -0.08 37 C-1.98 32, 0.24 25.97, 5.13 21.4 C10.02 16.83, 18.96 13.03, 29.24 9.58 C39.53 6.13, 53.21 2.27, 66.85 0.69 C80.5 -0.89, 99.56 -0.36, 111.11 0.1 C122.66 0.55, 130.45 2.36, 136.17 3.42 C141.89 4.47, 146.2 5.89, 145.43 6.42 M105.81 -0.92 C119.3 -0.47, 134.19 3.51, 145.65 6.46 C157.11 9.41, 167.91 12.63, 174.57 16.76 C181.24 20.9, 185.02 26.24, 185.65 31.29 C186.27 36.35, 184.12 42.47, 178.31 47.08 C172.5 51.69, 161.99 55.79, 150.79 58.96 C139.59 62.13, 124.96 65.1, 111.12 66.1 C97.27 67.1, 81.25 66.24, 67.74 64.97 C54.22 63.7, 40.13 61.75, 30.03 58.49 C19.94 55.22, 12.23 50.34, 7.17 45.36 C2.11 40.37, -1.49 33.44, -0.31 28.58 C0.86 23.72, 6.23 20.05, 14.22 16.2 C22.22 12.35, 35.24 7.92, 47.66 5.47 C60.08 3.02, 79.38 2.58, 88.72 1.49 C98.06 0.41, 101.12 -0.82, 103.69 -1.04 C106.26 -1.26, 103.96 -0.8, 104.16 0.17" stroke="#000000" stroke-width="1" fill="none"></path></g><g transform="translate(549.5 156) rotate(0 58.5 10)"><text x="0" y="14" font-family="Virgil, Segoe UI Emoji" font-size="16px" fill="#000000" text-anchor="start" style="white-space: pre;" direction="ltr">LaunchXXXtest</text></g><g transform="translate(785.5 153) rotate(0 81 10)"><text x="0" y="14" font-family="Virgil, Segoe UI Emoji" font-size="16px" fill="#000000" text-anchor="start" style="white-space: pre;" direction="ltr">GenerateKwosReport</text></g><g transform="translate(411 448) rotate(0 58.5 10)"><text x="0" y="14" font-family="Virgil, Segoe UI Emoji" font-size="16px" fill="#000000" text-anchor="start" style="white-space: pre;" direction="ltr">LaunchXXXtest</text></g><g transform="translate(704.5 447) rotate(0 39.5 10)"><text x="0" y="14" font-family="Virgil, Segoe UI Emoji" font-size="16px" fill="#000000" text-anchor="start" style="white-space: pre;" direction="ltr">kwos_calc</text></g><g stroke-linecap="round" transform="translate(519.5 132) rotate(0 93.5 33)"><path d="M66.33 0.78 C79.06 -1.05, 97.18 -1.57, 111.2 -0.45 C125.22 0.67, 139.49 4.43, 150.43 7.5 C161.37 10.57, 170.84 13.64, 176.84 17.98 C182.83 22.33, 186.47 28.54, 186.4 33.58 C186.33 38.62, 182.84 43.73, 176.43 48.21 C170.01 52.7, 159.67 57.54, 147.93 60.5 C136.19 63.47, 120.26 65.36, 106 66.01 C91.74 66.66, 75.64 66.19, 62.36 64.42 C49.08 62.64, 35.94 58.93, 26.34 55.35 C16.73 51.77, 8.95 47.67, 4.73 42.94 C0.5 38.21, -1.24 31.98, 0.99 26.99 C3.21 21.99, 9.7 16.98, 18.07 12.96 C26.44 8.94, 41.19 5.09, 51.21 2.86 C61.22 0.63, 71.85 -0.07, 78.16 -0.43 C84.48 -0.78, 88.68 0.19, 89.09 0.73 M84.25 1.42 C97.34 0.27, 114.45 0.25, 127.74 1.7 C141.04 3.15, 154.76 6.18, 164.02 10.13 C173.29 14.07, 179.77 20.38, 183.34 25.39 C186.92 30.4, 188.53 35.47, 185.49 40.2 C182.45 44.92, 174.25 50.14, 165.11 53.75 C155.97 57.36, 143.53 59.74, 130.66 61.86 C117.78 63.97, 102.14 66.37, 87.85 66.44 C73.57 66.52, 56.91 64.69, 44.94 62.31 C32.98 59.93, 23.69 56.6, 16.06 52.17 C8.43 47.75, 0.68 40.92, -0.86 35.76 C-2.39 30.6, 1.58 25.89, 6.85 21.21 C12.13 16.54, 20.08 11.3, 30.8 7.71 C41.52 4.11, 62.36 0.79, 71.19 -0.37 C80.03 -1.53, 81.59 0.5, 83.82 0.74 C86.05 0.98, 83.99 0.52, 84.58 1.09" stroke="#000000" stroke-width="1" fill="none"></path></g><g stroke-linecap="round" transform="translate(253.5 131) rotate(0 93.5 33)"><path d="M55.69 2.5 C67.51 0.11, 85.67 0.11, 99.82 0.6 C113.97 1.1, 128.54 3.1, 140.58 5.48 C152.63 7.86, 164.42 10.94, 172.11 14.88 C179.79 18.83, 185.39 24.03, 186.7 29.13 C188.01 34.22, 185.08 40.7, 179.96 45.46 C174.84 50.21, 166.53 54.46, 155.99 57.67 C145.46 60.88, 130.51 63.63, 116.76 64.73 C103 65.84, 87.2 65.26, 73.46 64.28 C59.72 63.3, 45.38 61.76, 34.33 58.86 C23.28 55.95, 12.71 51.32, 7.16 46.85 C1.62 42.39, 0.29 37.21, 1.07 32.08 C1.84 26.96, 4.82 20.54, 11.82 16.1 C18.82 11.66, 35.19 7.81, 43.06 5.43 C50.94 3.05, 55.61 2.48, 59.08 1.84 C62.55 1.19, 63.4 0.9, 63.87 1.55 M70.99 -0.45 C83.8 -2.13, 101.62 0.56, 115.07 2 C128.52 3.43, 141.09 5.3, 151.69 8.17 C162.29 11.04, 172.88 14.92, 178.66 19.22 C184.44 23.51, 187.17 28.77, 186.39 33.94 C185.61 39.11, 180.88 45.52, 173.96 50.24 C167.05 54.97, 156.66 59.82, 144.89 62.27 C133.12 64.72, 117.47 64.84, 103.34 64.95 C89.2 65.07, 73.24 64.82, 60.08 62.96 C46.93 61.1, 33.86 57.27, 24.43 53.79 C15 50.32, 7.01 46.88, 3.52 42.11 C0.04 37.34, 0.61 30.08, 3.52 25.17 C6.43 20.26, 12.46 16.39, 20.98 12.64 C29.5 8.89, 46.37 4.83, 54.66 2.68 C62.96 0.53, 67.84 -0.03, 70.75 -0.25 C73.66 -0.48, 71.9 0.62, 72.12 1.33" stroke="#000000" stroke-width="1" fill="none"></path></g><g stroke-linecap="round" transform="translate(216.5 369) rotate(0 397.5 87)"><path d="M0.59 -0.59 C227.98 2.53, 456.57 2.52, 794.36 -0.23 M793.61 -1.03 C792.26 45.45, 793.55 93.48, 796.95 172.57 M794.27 174.27 C584.9 176.5, 373.66 175.47, -0.75 173.95 M-1.39 174.26 C-1.48 132.48, 0.02 89.15, -0.1 1.66" stroke="#000000" stroke-width="2.5" fill="none" stroke-dasharray="8 10"></path></g><g stroke-linecap="round"><g transform="translate(443.0510123471281 166.43106595511534) rotate(0 33.83720890164284 0.8020439547858871)"><path d="M0.77 -0.54 C12.04 -0.27, 56.94 1.76, 67.96 2.15 M-0.28 1.79 C10.89 1.64, 56.52 0, 67.58 0.22" stroke="#000000" stroke-width="1" fill="none"></path></g><g transform="translate(443.0510123471281 166.43106595511534) rotate(0 33.83720890164284 0.8020439547858871)"><path d="M38.62 12.65 C49.33 7.18, 57.93 5.15, 69.19 -0.99 M39.05 10.32 C46.78 7.47, 55.26 4.68, 67.27 -0.74" stroke="#000000" stroke-width="1" fill="none"></path></g><g transform="translate(443.0510123471281 166.43106595511534) rotate(0 33.83720890164284 0.8020439547858871)"><path d="M38.36 -7.87 C49.25 -6.58, 57.93 -1.85, 69.19 -0.99 M38.8 -10.2 C46.66 -7.22, 55.21 -4.19, 67.27 -0.74" stroke="#000000" stroke-width="1" fill="none"></path></g></g><g stroke-linecap="round"><g transform="translate(705.5672375340582 162.10737897666178) rotate(0 34.52501553466459 0.9105013408698142)"><path d="M1.2 -0.07 C12.39 0.24, 55.19 1.08, 66.28 1.55 M0.36 -1.15 C12.04 -0.64, 57.51 2.62, 68.69 2.97" stroke="#000000" stroke-width="1" fill="none"></path></g><g transform="translate(705.5672375340582 162.10737897666178) rotate(0 34.52501553466459 0.9105013408698142)"><path d="M39.87 10.72 C46.08 10.85, 54.54 8.58, 68.98 4.38 M39.42 11.15 C50.61 9.41, 60.2 5.95, 68.14 2.4" stroke="#000000" stroke-width="1" fill="none"></path></g><g transform="translate(705.5672375340582 162.10737897666178) rotate(0 34.52501553466459 0.9105013408698142)"><path d="M40.98 -9.77 C46.89 -5.02, 55.1 -2.67, 68.98 4.38 M40.53 -9.35 C51.13 -3.56, 60.3 0.51, 68.14 2.4" stroke="#000000" stroke-width="1" fill="none"></path></g></g><g stroke-linecap="round" transform="translate(385.5 425) rotate(0 93.5 33)"><path d="M75.13 1.03 C87.77 -0.26, 104.7 0.68, 118.41 1.84 C132.12 2.99, 146.79 4.55, 157.39 7.97 C167.99 11.39, 177.12 17.59, 182.01 22.36 C186.9 27.12, 188.35 31.91, 186.73 36.57 C185.1 41.23, 180.15 46.07, 172.28 50.33 C164.42 54.59, 152.03 59.38, 139.55 62.14 C127.06 64.9, 111.51 66.88, 97.36 66.88 C83.22 66.89, 67.38 64.4, 54.67 62.18 C41.96 59.96, 29.79 57.22, 21.11 53.55 C12.42 49.87, 5.39 44.86, 2.57 40.13 C-0.24 35.4, 0.45 29.99, 4.22 25.18 C7.98 20.36, 15.67 15.04, 25.16 11.27 C34.65 7.49, 50.55 4.45, 61.17 2.52 C71.78 0.59, 82.03 -0.05, 88.85 -0.31 C95.68 -0.58, 101.96 0.28, 102.1 0.91 M91.43 -0.77 C104.92 -1.26, 121.27 1.59, 133.7 3.61 C146.13 5.63, 157.29 7.54, 166 11.33 C174.71 15.13, 182.91 21.18, 185.96 26.37 C189.01 31.56, 188.28 37.66, 184.32 42.47 C180.35 47.28, 172.1 51.7, 162.16 55.23 C152.22 58.76, 138.11 62.16, 124.67 63.68 C111.23 65.19, 95.3 64.7, 81.49 64.32 C67.69 63.95, 53.63 64.07, 41.86 61.44 C30.1 58.81, 17.95 53.27, 10.91 48.53 C3.87 43.79, -0.18 37.75, -0.37 32.99 C-0.55 28.22, 3.69 24.35, 9.81 19.92 C15.93 15.48, 25.48 9.52, 36.35 6.36 C47.23 3.2, 66.15 2.17, 75.04 0.96 C83.93 -0.26, 86.82 -0.91, 89.68 -0.93 C92.53 -0.95, 92.18 0.02, 92.17 0.86" stroke="#000000" stroke-width="1" fill="none"></path></g><g stroke-linecap="round" transform="translate(649.5 424) rotate(0 93.5 33)"><path d="M130.18 3.42 C143.25 4.81, 156.62 8.62, 165.75 12.4 C174.89 16.17, 181.81 21.42, 184.98 26.07 C188.15 30.71, 188.24 35.68, 184.77 40.26 C181.31 44.83, 173.43 49.66, 164.2 53.52 C154.96 57.38, 142.32 61.37, 129.35 63.43 C116.37 65.48, 100.47 66.26, 86.34 65.84 C72.2 65.42, 56.52 63.58, 44.53 60.91 C32.54 58.23, 21.74 53.94, 14.41 49.79 C7.09 45.64, 1.95 41.05, 0.56 36.01 C-0.82 30.97, 0.7 24.26, 6.08 19.55 C11.46 14.84, 21.9 10.81, 32.85 7.75 C43.81 4.69, 58.11 2.36, 71.79 1.19 C85.47 0.01, 104.87 0.4, 114.92 0.67 C124.97 0.95, 128.88 2.4, 132.11 2.82 C135.35 3.24, 134.84 2.53, 134.33 3.18 M63.08 2.88 C75.62 1.15, 94.48 0.67, 108.53 1.22 C122.58 1.77, 135.99 3.58, 147.39 6.19 C158.78 8.8, 170.46 12.21, 176.9 16.89 C183.35 21.57, 185.99 29.33, 186.05 34.26 C186.12 39.19, 183.31 42.02, 177.28 46.48 C171.24 50.95, 161.42 57.74, 149.84 61.04 C138.25 64.35, 121.83 65.91, 107.76 66.3 C93.69 66.69, 78.88 64.88, 65.42 63.41 C51.95 61.93, 36.83 60.72, 26.98 57.44 C17.12 54.17, 10.71 48.59, 6.29 43.73 C1.88 38.88, -1.26 33.32, 0.49 28.32 C2.24 23.32, 8.42 17.77, 16.79 13.72 C25.17 9.68, 43.03 6.12, 50.73 4.07 C58.42 2.01, 60.67 1.78, 62.97 1.4 C65.26 1.03, 63.61 1.37, 64.49 1.81" stroke="#000000" stroke-width="1" fill="none"></path></g><g stroke-linecap="round"><g transform="translate(575.8587064809317 457.0853256486032) rotate(0 35.56217002648441 0.8670655669600933)"><path d="M-1 0.85 C11.18 0.75, 59.84 0.28, 72.12 0.2 M0.68 0.26 C12.74 0.26, 59.02 1.32, 70.9 1.54" stroke="#000000" stroke-width="1" fill="none"></path></g><g transform="translate(575.8587064809317 457.0853256486032) rotate(0 35.56217002648441 0.8670655669600933)"><path d="M43.92 10.32 C48.05 9.38, 54.58 7.15, 70.85 -0.21 M42.62 10.82 C52.75 8.24, 63.01 3.73, 71.73 2.05" stroke="#000000" stroke-width="1" fill="none"></path></g><g transform="translate(575.8587064809317 457.0853256486032) rotate(0 35.56217002648441 0.8670655669600933)"><path d="M44.35 -10.19 C48.52 -6.64, 54.95 -4.36, 70.85 -0.21 M43.05 -9.7 C52.85 -5.21, 62.96 -2.65, 71.73 2.05" stroke="#000000" stroke-width="1" fill="none"></path></g></g><g stroke-linecap="round"><g transform="translate(617.7285234390479 203.96980792722655) rotate(0 -73.99513415655127 109.89761622903865)"><path d="M-0.77 -0.3 C-25.51 36.3, -123.65 183.1, -148.47 219.9 M1.03 -1.5 C-23.81 35.24, -123.73 184.65, -149.02 221.3" stroke="#000000" stroke-width="1" fill="none"></path></g><g transform="translate(617.7285234390479 203.96980792722655) rotate(0 -73.99513415655127 109.89761622903865)"><path d="M-142.19 193.47 C-144.25 200.08, -145.39 210.43, -149.31 222.36 M-140.95 191.27 C-143.03 198.68, -144.74 205.2, -148.45 221.76" stroke="#000000" stroke-width="1" fill="none"></path></g><g transform="translate(617.7285234390479 203.96980792722655) rotate(0 -73.99513415655127 109.89761622903865)"><path d="M-125.2 204.99 C-132.37 208.04, -138.58 214.96, -149.31 222.36 M-123.96 202.79 C-129.72 207.68, -135.05 211.74, -148.45 221.76" stroke="#000000" stroke-width="1" fill="none"></path></g></g><g stroke-linecap="round"><g transform="translate(836.5 202.66295793938446) rotate(0 -54.33667307315386 110.19490170708855)"><path d="M-0.6 0.65 C-18.82 37.31, -90.97 184.09, -108.87 220.44 M1.28 -0.05 C-17.15 36.21, -91.67 182.03, -109.95 218.62" stroke="#000000" stroke-width="1" fill="none"></path></g><g transform="translate(836.5 202.66295793938446) rotate(0 -54.33667307315386 110.19490170708855)"><path d="M-105.29 188.4 C-106.47 199.86, -110.45 209.32, -109.34 217.29 M-105.67 188.21 C-107.4 198.94, -109.06 207.1, -109.55 217.72" stroke="#000000" stroke-width="1" fill="none"></path></g><g transform="translate(836.5 202.66295793938446) rotate(0 -54.33667307315386 110.19490170708855)"><path d="M-86.98 197.67 C-94.35 205.93, -104.48 212.27, -109.34 217.29 M-87.36 197.48 C-94.64 205.4, -101.9 210.74, -109.55 217.72" stroke="#000000" stroke-width="1" fill="none"></path></g></g><g transform="translate(806.5 299) rotate(0 43.5 10)"><text x="0" y="14" font-family="Virgil, Segoe UI Emoji" font-size="16px" fill="#000000" text-anchor="start" style="white-space: pre;" direction="ltr">6 send msg</text></g><g transform="translate(295 66) rotate(0 49.5 30)"><text x="49.5" y="14" font-family="Virgil, Segoe UI Emoji" font-size="16px" fill="#000000" text-anchor="middle" style="white-space: pre;" direction="ltr">handler:</text><text x="49.5" y="34" font-family="Virgil, Segoe UI Emoji" font-size="16px" fill="#000000" text-anchor="middle" style="white-space: pre;" direction="ltr">1 validation</text><text x="49.5" y="54" font-family="Virgil, Segoe UI Emoji" font-size="16px" fill="#000000" text-anchor="middle" style="white-space: pre;" direction="ltr">2 generation</text></g><g transform="translate(64 291.5) rotate(0 13 12.5)"><text x="13" y="18" font-family="Virgil, Segoe UI Emoji" font-size="20px" fill="#000000" text-anchor="middle" style="white-space: pre;" direction="ltr">S3</text></g><g stroke-linecap="round"><g transform="translate(391.00651606206145 444.4011911655796) rotate(0 -129.14487023949857 -59.22143054511824)"><path d="M0.25 -0.96 C-42.8 -20.8, -214.51 -99.85, -257.32 -119.59 M-1.08 1.14 C-44.41 -18.45, -215.83 -98.26, -258.54 -118.13" stroke="#000000" stroke-width="1" fill="none"></path></g><g transform="translate(391.00651606206145 444.4011911655796) rotate(0 -129.14487023949857 -59.22143054511824)"><path d="M-230.26 -116.38 C-240.24 -116.16, -251.3 -116.45, -257.27 -117.93 M-228.47 -115.9 C-234.35 -116.34, -240.95 -116.16, -258.43 -117.3" stroke="#000000" stroke-width="1" fill="none"></path></g><g transform="translate(391.00651606206145 444.4011911655796) rotate(0 -129.14487023949857 -59.22143054511824)"><path d="M-238.91 -97.78 C-245.52 -104.64, -253.29 -111.99, -257.27 -117.93 M-237.13 -97.3 C-241.18 -101.64, -245.98 -105.36, -258.43 -117.3" stroke="#000000" stroke-width="1" fill="none"></path></g></g><g stroke-linecap="round"><g transform="translate(603.5457824870678 200.54503359074948) rotate(0 -236.22512607627579 35.76995596571513)"><path d="M0.57 -0.76 C-78.33 11.23, -393.49 58.8, -472.54 70.73 M-0.59 1.46 C-79.64 13.76, -394.02 60.51, -473.02 72.3" stroke="#000000" stroke-width="1" fill="none"></path></g><g transform="translate(603.5457824870678 200.54503359074948) rotate(0 -236.22512607627579 35.76995596571513)"><path d="M-447.91 59.48 C-456.41 62.95, -466.01 68.13, -474.91 70.69 M-446.81 57.5 C-454.08 61.44, -462.19 65.53, -472.76 72.5" stroke="#000000" stroke-width="1" fill="none"></path></g><g transform="translate(603.5457824870678 200.54503359074948) rotate(0 -236.22512607627579 35.76995596571513)"><path d="M-444.89 79.78 C-454.29 75.78, -465.02 73.48, -474.91 70.69 M-443.79 77.8 C-452.06 76.11, -461.01 74.54, -472.76 72.5" stroke="#000000" stroke-width="1" fill="none"></path></g></g><g stroke-linecap="round" transform="translate(10 244) rotate(0 64 58.5)"><path d="M94.85 7.25 C103.86 11.78, 112.56 19.25, 118.06 27.19 C123.57 35.13, 127.24 45.51, 127.88 54.89 C128.51 64.27, 126.26 74.99, 121.87 83.49 C117.48 91.99, 109.85 100.38, 101.52 105.89 C93.19 111.4, 82.09 115.4, 71.88 116.55 C61.67 117.71, 49.84 116.32, 40.29 112.84 C30.73 109.35, 21.1 102.92, 14.57 95.66 C8.03 88.39, 2.99 78.51, 1.09 69.27 C-0.8 60.03, -0.01 49.15, 3.21 40.22 C6.42 31.29, 12.85 22.1, 20.38 15.69 C27.91 9.28, 38.39 4.07, 48.36 1.77 C58.33 -0.52, 70.27 -0.47, 80.22 1.91 C90.16 4.29, 100.59 9.59, 108.05 16.06" stroke="#000000" stroke-width="2.5" fill="none" stroke-dasharray="8 10"></path></g><g transform="translate(272 258) rotate(0 56 10)"><text x="56" y="14" font-family="Virgil, Segoe UI Emoji" font-size="16px" fill="#000000" text-anchor="middle" style="white-space: pre;" direction="ltr">3 upload kwos</text></g><g transform="translate(288.5 374) rotate(0 64.5 20)"><text x="0" y="14" font-family="Virgil, Segoe UI Emoji" font-size="16px" fill="#000000" text-anchor="start" style="white-space: pre;" direction="ltr">5 download kwos</text><text x="0" y="34" font-family="Virgil, Segoe UI Emoji" font-size="16px" fill="#000000" text-anchor="start" style="white-space: pre;" direction="ltr"></text></g><g transform="translate(710.5 497) rotate(0 92 10)"><text x="0" y="14" font-family="Virgil, Segoe UI Emoji" font-size="16px" fill="#000000" text-anchor="start" style="white-space: pre;" direction="ltr">7 generate kwos report</text></g></svg>